<mxfile host="app.diagrams.net" agent="Mozilla/5.0 (Windows NT 10.0; Win64; x64) AppleWebKit/537.36 (KHTML, like Gecko) Chrome/128.0.0.0 Safari/537.36" version="24.7.14">
  <diagram name="PÃ¡gina-1" id="1htR7QAZDnTOX-6xOAY-">
    <mxGraphModel dx="880" dy="468" grid="1" gridSize="10" guides="1" tooltips="1" connect="1" arrows="1" fold="1" page="1" pageScale="1" pageWidth="850" pageHeight="1100" math="0" shadow="0">
      <root>
        <mxCell id="0" />
        <mxCell id="1" parent="0" />
        <mxCell id="ceY87DdqoWbLVXukCn8f-5" style="rounded=0;orthogonalLoop=1;jettySize=auto;html=1;startArrow=classic;startFill=1;" edge="1" parent="1" source="ceY87DdqoWbLVXukCn8f-1" target="ceY87DdqoWbLVXukCn8f-2">
          <mxGeometry relative="1" as="geometry" />
        </mxCell>
        <mxCell id="ceY87DdqoWbLVXukCn8f-1" value="&lt;b&gt;Gateway&lt;/b&gt;" style="sketch=0;points=[[0,0,0],[0.25,0,0],[0.5,0,0],[0.75,0,0],[1,0,0],[0,1,0],[0.25,1,0],[0.5,1,0],[0.75,1,0],[1,1,0],[0,0.25,0],[0,0.5,0],[0,0.75,0],[1,0.25,0],[1,0.5,0],[1,0.75,0]];outlineConnect=0;fontColor=#232F3E;fillColor=#8C4FFF;strokeColor=#ffffff;dashed=0;verticalLabelPosition=bottom;verticalAlign=top;align=center;html=1;fontSize=12;fontStyle=0;aspect=fixed;shape=mxgraph.aws4.resourceIcon;resIcon=mxgraph.aws4.api_gateway;" vertex="1" parent="1">
          <mxGeometry x="220" y="205" width="138" height="138" as="geometry" />
        </mxCell>
        <mxCell id="ceY87DdqoWbLVXukCn8f-6" style="rounded=0;orthogonalLoop=1;jettySize=auto;html=1;startArrow=classic;startFill=1;entryX=0.033;entryY=1.017;entryDx=0;entryDy=0;entryPerimeter=0;exitX=0.25;exitY=0;exitDx=0;exitDy=0;exitPerimeter=0;" edge="1" parent="1" source="ceY87DdqoWbLVXukCn8f-2" target="ceY87DdqoWbLVXukCn8f-3">
          <mxGeometry relative="1" as="geometry">
            <mxPoint x="509" y="50" as="targetPoint" />
          </mxGeometry>
        </mxCell>
        <mxCell id="ceY87DdqoWbLVXukCn8f-7" value="Generate embedding" style="edgeLabel;html=1;align=center;verticalAlign=middle;resizable=0;points=[];" vertex="1" connectable="0" parent="ceY87DdqoWbLVXukCn8f-6">
          <mxGeometry x="-0.3158" y="1" relative="1" as="geometry">
            <mxPoint x="-11" y="-26" as="offset" />
          </mxGeometry>
        </mxCell>
        <mxCell id="ceY87DdqoWbLVXukCn8f-12" style="rounded=0;orthogonalLoop=1;jettySize=auto;html=1;startArrow=classic;startFill=1;entryX=0.983;entryY=0.983;entryDx=0;entryDy=0;entryPerimeter=0;exitX=1;exitY=0;exitDx=0;exitDy=0;exitPerimeter=0;" edge="1" parent="1" source="ceY87DdqoWbLVXukCn8f-2" target="ceY87DdqoWbLVXukCn8f-3">
          <mxGeometry relative="1" as="geometry">
            <mxPoint x="608.02" y="108.98000000000002" as="targetPoint" />
          </mxGeometry>
        </mxCell>
        <mxCell id="ceY87DdqoWbLVXukCn8f-13" value="Generate RAG" style="edgeLabel;html=1;align=center;verticalAlign=middle;resizable=0;points=[];" vertex="1" connectable="0" parent="ceY87DdqoWbLVXukCn8f-12">
          <mxGeometry x="0.0726" y="2" relative="1" as="geometry">
            <mxPoint x="14" y="20" as="offset" />
          </mxGeometry>
        </mxCell>
        <mxCell id="ceY87DdqoWbLVXukCn8f-2" value="&lt;b&gt;Lambda&lt;/b&gt;" style="sketch=0;points=[[0,0,0],[0.25,0,0],[0.5,0,0],[0.75,0,0],[1,0,0],[0,1,0],[0.25,1,0],[0.5,1,0],[0.75,1,0],[1,1,0],[0,0.25,0],[0,0.5,0],[0,0.75,0],[1,0.25,0],[1,0.5,0],[1,0.75,0]];outlineConnect=0;fontColor=#232F3E;fillColor=#ED7100;strokeColor=#ffffff;dashed=0;verticalLabelPosition=bottom;verticalAlign=top;align=center;html=1;fontSize=12;fontStyle=0;aspect=fixed;shape=mxgraph.aws4.resourceIcon;resIcon=mxgraph.aws4.lambda;" vertex="1" parent="1">
          <mxGeometry x="460" y="230" width="88" height="88" as="geometry" />
        </mxCell>
        <mxCell id="ceY87DdqoWbLVXukCn8f-3" value="&lt;b&gt;Openai&lt;/b&gt;" style="image;aspect=fixed;html=1;points=[];align=center;fontSize=12;image=img/lib/azure2/ai_machine_learning/Azure_OpenAI.svg;" vertex="1" parent="1">
          <mxGeometry x="480" y="30" width="70" height="70" as="geometry" />
        </mxCell>
        <mxCell id="ceY87DdqoWbLVXukCn8f-4" value="&lt;b&gt;Supabase&lt;/b&gt;" style="image;aspect=fixed;html=1;points=[];align=center;fontSize=12;image=img/lib/azure2/databases/Azure_Database_PostgreSQL_Server.svg;" vertex="1" parent="1">
          <mxGeometry x="760" y="210" width="82.5" height="110" as="geometry" />
        </mxCell>
        <mxCell id="ceY87DdqoWbLVXukCn8f-8" style="rounded=0;orthogonalLoop=1;jettySize=auto;html=1;entryX=0.013;entryY=0.168;entryDx=0;entryDy=0;entryPerimeter=0;startArrow=classic;startFill=1;exitX=1;exitY=0;exitDx=0;exitDy=0;exitPerimeter=0;" edge="1" parent="1" source="ceY87DdqoWbLVXukCn8f-2" target="ceY87DdqoWbLVXukCn8f-4">
          <mxGeometry relative="1" as="geometry">
            <mxPoint x="540" y="240" as="sourcePoint" />
          </mxGeometry>
        </mxCell>
        <mxCell id="ceY87DdqoWbLVXukCn8f-9" value="Store Embedding" style="edgeLabel;html=1;align=center;verticalAlign=middle;resizable=0;points=[];" vertex="1" connectable="0" parent="ceY87DdqoWbLVXukCn8f-8">
          <mxGeometry x="0.1723" relative="1" as="geometry">
            <mxPoint x="-23" y="1" as="offset" />
          </mxGeometry>
        </mxCell>
        <mxCell id="ceY87DdqoWbLVXukCn8f-10" style="rounded=0;orthogonalLoop=1;jettySize=auto;html=1;exitX=1;exitY=1;exitDx=0;exitDy=0;exitPerimeter=0;entryX=0.119;entryY=0.96;entryDx=0;entryDy=0;entryPerimeter=0;startArrow=classic;startFill=1;" edge="1" parent="1" source="ceY87DdqoWbLVXukCn8f-2" target="ceY87DdqoWbLVXukCn8f-4">
          <mxGeometry relative="1" as="geometry">
            <mxPoint x="760" y="270" as="targetPoint" />
          </mxGeometry>
        </mxCell>
        <mxCell id="ceY87DdqoWbLVXukCn8f-14" value="Retrieve data" style="edgeLabel;html=1;align=center;verticalAlign=middle;resizable=0;points=[];" vertex="1" connectable="0" parent="ceY87DdqoWbLVXukCn8f-10">
          <mxGeometry x="-0.1526" y="-1" relative="1" as="geometry">
            <mxPoint x="8" as="offset" />
          </mxGeometry>
        </mxCell>
        <mxCell id="ceY87DdqoWbLVXukCn8f-16" style="edgeStyle=orthogonalEdgeStyle;rounded=0;orthogonalLoop=1;jettySize=auto;html=1;startArrow=classic;startFill=1;" edge="1" parent="1" source="ceY87DdqoWbLVXukCn8f-15" target="ceY87DdqoWbLVXukCn8f-1">
          <mxGeometry relative="1" as="geometry" />
        </mxCell>
        <mxCell id="ceY87DdqoWbLVXukCn8f-15" value="&lt;b&gt;Flutter App&lt;/b&gt;" style="sketch=0;outlineConnect=0;fontColor=#232F3E;gradientColor=none;fillColor=#232F3D;strokeColor=none;dashed=0;verticalLabelPosition=bottom;verticalAlign=top;align=center;html=1;fontSize=12;fontStyle=0;aspect=fixed;pointerEvents=1;shape=mxgraph.aws4.mobile_client;" vertex="1" parent="1">
          <mxGeometry x="60" y="235" width="41" height="78" as="geometry" />
        </mxCell>
      </root>
    </mxGraphModel>
  </diagram>
</mxfile>
